<svg width="36" height="40" viewBox="0 0 36 40" fill="none" xmlns="http://www.w3.org/2000/svg">
<path d="M2.55683 40C1.88838 40 1.35362 39.7417 0.952544 39.225C0.551473 38.7083 0.434494 38.1333 0.601607 37.5L8.12169 7.5L8.02142 6.1C7.988 5.53333 7.78747 5.04167 7.41982 4.625C7.05217 4.20833 6.58425 4 6.01607 4C5.44788 4 4.97161 4.19167 4.58725 4.575C4.20289 4.95833 4.01071 5.43333 4.01071 6V8C4.01071 8.56667 3.81853 9.04167 3.43417 9.425C3.04981 9.80833 2.57354 10 2.00536 10C1.43717 10 0.9609 9.80833 0.57654 9.425C0.19218 9.04167 0 8.56667 0 8V6C0 4.33333 0.584895 2.91667 1.75469 1.75C2.92448 0.583333 4.34494 0 6.01607 0H28.1753C29.7795 0 31.1582 0.541667 32.3113 1.625C33.4644 2.70833 34.0911 4.05 34.1913 5.65L35.9961 37.9C36.0296 38.4667 35.8457 38.9583 35.4447 39.375C35.0436 39.7917 34.559 40 33.9908 40H2.55683ZM5.21393 36H9.87638L8.92383 20.8L5.21393 36ZM13.9372 36H31.8852L30.1806 5.9C30.1472 5.36667 29.9383 4.91667 29.5539 4.55C29.1696 4.18333 28.71 4 28.1753 4H11.6812C11.8149 4.33333 11.8984 4.65833 11.9319 4.975C11.9653 5.29167 11.9987 5.63333 12.0321 6L13.9372 36ZM21.5576 32C21.9921 32 22.3514 31.8583 22.6355 31.575C22.9195 31.2917 23.0616 30.9333 23.0616 30.5V24C23.9306 23.8 24.6492 23.3417 25.2174 22.625C25.7855 21.9083 26.0696 21.0833 26.0696 20.15V13C26.0696 12.7333 25.9694 12.5 25.7688 12.3C25.5683 12.1 25.3343 12 25.067 12C24.7996 12 24.5656 12.1 24.3651 12.3C24.1645 12.5 24.0643 12.7333 24.0643 13V19.55H22.5603V13C22.5603 12.7333 22.46 12.5 22.2595 12.3C22.0589 12.1 21.825 12 21.5576 12C21.2902 12 21.0562 12.1 20.8557 12.3C20.6552 12.5 20.5549 12.7333 20.5549 13V19.55H19.0509V13C19.0509 12.7333 18.9506 12.5 18.7501 12.3C18.5495 12.1 18.3156 12 18.0482 12C17.7808 12 17.5469 12.1 17.3463 12.3C17.1458 12.5 17.0455 12.7333 17.0455 13V20.15C17.0455 21.0833 17.3296 21.9083 17.8978 22.625C18.466 23.3417 19.1846 23.8 20.0536 24V30.5C20.0536 30.9333 20.1956 31.2917 20.4797 31.575C20.7638 31.8583 21.1231 32 21.5576 32Z" fill="white"/>
</svg>
